<svg viewBox="0 0 200 50" xmlns="http://www.w3.org/2000/svg">
  <!-- Main Hull -->
  <path d="M10 18 L190 18 L185 12 L190 22 L185 32 L190 38 L10 32 L5 25 L10 18 Z" 
        fill="#2c3e50" stroke="#34495e" stroke-width="1"/>
  
  <!-- Upper Deck -->
  <rect x="15" y="15" width="170" height="20" fill="#34495e" stroke="#2c3e50" stroke-width="0.5"/>
  
  <!-- Main Gun Turrets -->
  <g transform="translate(40, 25)">
    <!-- Turret Base -->
    <circle cx="0" cy="0" r="8" fill="#2c3e50" stroke="#34495e"/>
    <!-- Main Guns -->
    <rect x="-2" y="-15" width="4" height="15" fill="#34495e"/>
    <rect x="-6" y="-15" width="4" height="15" fill="#34495e"/>
    <rect x="2" y="-15" width="4" height="15" fill="#34495e"/>
    <!-- Turret Details -->
    <circle cx="0" cy="0" r="5" fill="#34495e"/>
  </g>
  
  <g transform="translate(100, 25)">
    <!-- Turret Base -->
    <circle cx="0" cy="0" r="8" fill="#2c3e50" stroke="#34495e"/>
    <!-- Main Guns -->
    <rect x="-2" y="-15" width="4" height="15" fill="#34495e"/>
    <rect x="-6" y="-15" width="4" height="15" fill="#34495e"/>
    <rect x="2" y="-15" width="4" height="15" fill="#34495e"/>
    <!-- Turret Details -->
    <circle cx="0" cy="0" r="5" fill="#34495e"/>
  </g>
  
  <g transform="translate(160, 25)">
    <!-- Turret Base -->
    <circle cx="0" cy="0" r="7" fill="#2c3e50" stroke="#34495e"/>
    <!-- Main Guns -->
    <rect x="-1" y="-12" width="3" height="12" fill="#34495e"/>
    <rect x="-4" y="-12" width="3" height="12" fill="#34495e"/>
    <!-- Turret Details -->
    <circle cx="0" cy="0" r="4" fill="#34495e"/>
  </g>
  
  <!-- Bridge/Command Structure -->
  <rect x="130" y="8" width="20" height="12" fill="#34495e" stroke="#2c3e50" stroke-width="0.5"/>
  <rect x="132" y="5" width="16" height="8" fill="#34495e" stroke="#2c3e50" stroke-width="0.5"/>
  
  <!-- Communications Array -->
  <circle cx="140" cy="7" r="1.5" fill="#e74c3c"/>
  <line x1="138" y1="5" x2="142" y2="9" stroke="#e74c3c" stroke-width="0.5"/>
  <line x1="142" y1="5" x2="138" y2="9" stroke="#e74c3c" stroke-width="0.5"/>
  
  <!-- Secondary Weapons -->
  <circle cx="25" cy="20" r="2" fill="#34495e" stroke="#2c3e50"/>
  <circle cx="25" cy="30" r="2" fill="#34495e" stroke="#2c3e50"/>
  <circle cx="175" cy="20" r="2" fill="#34495e" stroke="#2c3e50"/>
  <circle cx="175" cy="30" r="2" fill="#34495e" stroke="#2c3e50"/>
  
  <!-- Smoke Stack -->
  <rect x="115" y="8" width="8" height="12" fill="#34495e" stroke="#2c3e50" stroke-width="0.5"/>
  
  <!-- Anchor -->
  <g transform="translate(18, 25)">
    <circle cx="0" cy="0" r="1.5" fill="#ecf0f1" stroke="#bdc3c7"/>
    <path d="M-1 -1 L1 1 M1 -1 L-1 1" stroke="#bdc3c7" stroke-width="0.5"/>
  </g>
  
  <!-- Armor Plating Details -->
  <line x1="15" y1="20" x2="185" y2="20" stroke="#2c3e50" stroke-width="0.5" opacity="0.7"/>
  <line x1="15" y1="30" x2="185" y2="30" stroke="#2c3e50" stroke-width="0.5" opacity="0.7"/>
  
  <!-- Bow Wave -->
  <path d="M5 25 Q10 22 15 25 Q10 28 5 25" fill="none" stroke="#3498db" stroke-width="0.5" opacity="0.6"/>
</svg>

