<svg viewBox="0 0 100 50" xmlns="http://www.w3.org/2000/svg">
  <!-- Main Hull (Elliptical submarine shape) -->
  <ellipse cx="50" cy="25" rx="40" ry="8" fill="#34495e" stroke="#2c3e50" stroke-width="1"/>
  
  <!-- Submarine Body Details -->
  <ellipse cx="50" cy="23" rx="38" ry="6" fill="#4a5f7a" stroke="#34495e" stroke-width="0.5"/>
  
  <!-- Conning Tower -->
  <rect x="45" y="15" width="10" height="10" fill="#2c3e50" stroke="#34495e" stroke-width="0.5"/>
  <rect x="47" y="12" width="6" height="6" fill="#2c3e50" stroke="#34495e" stroke-width="0.5"/>
  
  <!-- Periscope -->
  <line x1="50" y1="12" x2="50" y2="8" stroke="#34495e" stroke-width="1"/>
  <circle cx="50" cy="8" r="1" fill="#e74c3c"/>
  
  <!-- Torpedo Tubes -->
  <circle cx="15" cy="25" r="2" fill="#2c3e50" stroke="#34495e"/>
  <circle cx="15" cy="21" r="1.5" fill="#2c3e50" stroke="#34495e"/>
  <circle cx="15" cy="29" r="1.5" fill="#2c3e50" stroke="#34495e"/>
  
  <!-- Propeller -->
  <g transform="translate(85, 25)">
    <circle cx="0" cy="0" r="3" fill="#2c3e50"/>
    <path d="M-2 -2 L2 2 M2 -2 L-2 2 M0 -3 L0 3 M-3 0 L3 0" stroke="#34495e" stroke-width="0.5"/>
  </g>
  
  <!-- Hull Markings -->
  <line x1="20" y1="25" x2="80" y2="25" stroke="#2c3e50" stroke-width="0.5" opacity="0.7"/>
  <line x1="25" y1="23" x2="75" y2="23" stroke="#2c3e50" stroke-width="0.3" opacity="0.5"/>
  <line x1="25" y1="27" x2="75" y2="27" stroke="#2c3e50" stroke-width="0.3" opacity="0.5"/>
  
  <!-- Ballast Tank Vents -->
  <circle cx="30" cy="20" r="0.5" fill="#2c3e50"/>
  <circle cx="35" cy="20" r="0.5" fill="#2c3e50"/>
  <circle cx="40" cy="20" r="0.5" fill="#2c3e50"/>
  <circle cx="60" cy="20" r="0.5" fill="#2c3e50"/>
  <circle cx="65" cy="20" r="0.5" fill="#2c3e50"/>
  <circle cx="70" cy="20" r="0.5" fill="#2c3e50"/>
  
  <circle cx="30" cy="30" r="0.5" fill="#2c3e50"/>
  <circle cx="35" cy="30" r="0.5" fill="#2c3e50"/>
  <circle cx="40" cy="30" r="0.5" fill="#2c3e50"/>
  <circle cx="60" cy="30" r="0.5" fill="#2c3e50"/>
  <circle cx="65" cy="30" r="0.5" fill="#2c3e50"/>
  <circle cx="70" cy="30" r="0.5" fill="#2c3e50"/>
  
  <!-- Hydroplanes -->
  <rect x="25" y="24" width="8" height="2" fill="#2c3e50" stroke="#34495e" stroke-width="0.3"/>
  <rect x="67" y="24" width="8" height="2" fill="#2c3e50" stroke="#34495e" stroke-width="0.3"/>
  
  <!-- Sonar Dome -->
  <ellipse cx="50" cy="32" rx="5" ry="2" fill="#2c3e50" stroke="#34495e" stroke-width="0.5"/>
  
  <!-- Diving Planes -->
  <path d="M45 18 L50 15 L55 18" fill="none" stroke="#34495e" stroke-width="1"/>
  
  <!-- Wake/Bubbles (when surfaced) -->
  <circle cx="85" cy="27" r="0.5" fill="#3498db" opacity="0.4"/>
  <circle cx="87" cy="25" r="0.3" fill="#3498db" opacity="0.4"/>
  <circle cx="89" cy="26" r="0.4" fill="#3498db" opacity="0.4"/>
</svg>

